<?xml version="1.0" encoding="us-ascii" standalone="no"?><svg xmlns="http://www.w3.org/2000/svg" xmlns:xlink="http://www.w3.org/1999/xlink" contentStyleType="text/css" height="875px" preserveAspectRatio="none" style="width:4024px;height:875px;background:#FFFFFF;" version="1.1" viewBox="0 0 4024 875" width="4024px" zoomAndPan="magnify"><defs/><g><!--cluster Model--><g id="cluster_Model"><path d="M8.5,6 L53.5,6 A3.75,3.75 0 0 1 56,8.5 L63,29.6094 L851.5,29.6094 A2.5,2.5 0 0 1 854,32.1094 L854,865.5 A2.5,2.5 0 0 1 851.5,868 L8.5,868 A2.5,2.5 0 0 1 6,865.5 L6,8.5 A2.5,2.5 0 0 1 8.5,6 " fill="none" style="stroke:#000000;stroke-width:1.5;"/><line style="stroke:#000000;stroke-width:1.5;" x1="6" x2="63" y1="29.6094" y2="29.6094"/><text fill="#000000" font-family="sans-serif" font-size="14" font-weight="bold" lengthAdjust="spacing" textLength="44" x="10" y="22.5332">Model</text></g><!--cluster Logique_metier--><g id="cluster_Logique_metier"><path d="M880.5,30 L991.5,30 A3.75,3.75 0 0 1 994,32.5 L1001,53.6094 L4014.5,53.6094 A2.5,2.5 0 0 1 4017,56.1094 L4017,854.5 A2.5,2.5 0 0 1 4014.5,857 L880.5,857 A2.5,2.5 0 0 1 878,854.5 L878,32.5 A2.5,2.5 0 0 1 880.5,30 " fill="none" style="stroke:#000000;stroke-width:1.5;"/><line style="stroke:#000000;stroke-width:1.5;" x1="878" x2="1001" y1="53.6094" y2="53.6094"/><text fill="#000000" font-family="sans-serif" font-size="14" font-weight="bold" lengthAdjust="spacing" textLength="110" x="882" y="46.5332">Logique_metier</text></g><!--cluster Gestion_de_commande--><g id="cluster_Gestion_de_commande"><path d="M2992.5,103 L3158.5,103 A3.75,3.75 0 0 1 3161,105.5 L3168,126.6094 L3990.5,126.6094 A2.5,2.5 0 0 1 3993,129.1094 L3993,830.5 A2.5,2.5 0 0 1 3990.5,833 L2992.5,833 A2.5,2.5 0 0 1 2990,830.5 L2990,105.5 A2.5,2.5 0 0 1 2992.5,103 " fill="none" style="stroke:#000000;stroke-width:1.5;"/><line style="stroke:#000000;stroke-width:1.5;" x1="2990" x2="3168" y1="126.6094" y2="126.6094"/><text fill="#000000" font-family="sans-serif" font-size="14" font-weight="bold" lengthAdjust="spacing" textLength="165" x="2994" y="119.5332">Gestion_de_commande</text></g><!--cluster Communication--><g id="cluster_Communication"><path d="M2497.5,74 L2606.5,74 A3.75,3.75 0 0 1 2609,76.5 L2616,97.6094 L2963.5,97.6094 A2.5,2.5 0 0 1 2966,100.1094 L2966,555 A2.5,2.5 0 0 1 2963.5,557.5 L2497.5,557.5 A2.5,2.5 0 0 1 2495,555 L2495,76.5 A2.5,2.5 0 0 1 2497.5,74 " fill="none" style="stroke:#000000;stroke-width:1.5;"/><line style="stroke:#000000;stroke-width:1.5;" x1="2495" x2="2616" y1="97.6094" y2="97.6094"/><text fill="#000000" font-family="sans-serif" font-size="14" font-weight="bold" lengthAdjust="spacing" textLength="108" x="2499" y="90.5332">Communication</text></g><!--cluster Impression--><g id="cluster_Impression"><path d="M1437.5,111.5 L1516.5,111.5 A3.75,3.75 0 0 1 1519,114 L1526,135.1094 L2468.5,135.1094 A2.5,2.5 0 0 1 2471,137.6094 L2471,821.5 A2.5,2.5 0 0 1 2468.5,824 L1437.5,824 A2.5,2.5 0 0 1 1435,821.5 L1435,114 A2.5,2.5 0 0 1 1437.5,111.5 " fill="none" style="stroke:#000000;stroke-width:1.5;"/><line style="stroke:#000000;stroke-width:1.5;" x1="1435" x2="1526" y1="135.1094" y2="135.1094"/><text fill="#000000" font-family="sans-serif" font-size="14" font-weight="bold" lengthAdjust="spacing" textLength="78" x="1439" y="128.0332">Impression</text></g><!--cluster Statistique--><g id="cluster_Statistique"><path d="M904.5,91.5 L980.5,91.5 A3.75,3.75 0 0 1 983,94 L990,115.1094 L1408.5,115.1094 A2.5,2.5 0 0 1 1411,117.6094 L1411,537.5 A2.5,2.5 0 0 1 1408.5,540 L904.5,540 A2.5,2.5 0 0 1 902,537.5 L902,94 A2.5,2.5 0 0 1 904.5,91.5 " fill="none" style="stroke:#000000;stroke-width:1.5;"/><line style="stroke:#000000;stroke-width:1.5;" x1="902" x2="990" y1="115.1094" y2="115.1094"/><text fill="#000000" font-family="sans-serif" font-size="14" font-weight="bold" lengthAdjust="spacing" textLength="75" x="906" y="108.0332">Statistique</text></g><!--class client--><g id="elem_client"><rect codeLine="4" fill="#F1F1F1" height="276.9219" id="client" rx="2.5" ry="2.5" style="stroke:#181818;stroke-width:0.5;" width="276" x="217" y="42"/><ellipse cx="334.25" cy="58" fill="#ADD1B2" rx="11" ry="11" style="stroke:#181818;stroke-width:1.0;"/><path d="M337.0156,53.875 Q337.1719,53.6563 337.3594,53.5469 Q337.5469,53.4375 337.7656,53.4375 Q338.1406,53.4375 338.375,53.7031 Q338.6094,53.9531 338.6094,54.5625 L338.6094,56.0156 Q338.6094,56.625 338.375,56.8906 Q338.1406,57.1563 337.7656,57.1563 Q337.4219,57.1563 337.2188,56.9531 Q337.0156,56.7656 336.9063,56.25 Q336.8594,55.8906 336.6719,55.7031 Q336.3438,55.3281 335.7344,55.1094 Q335.125,54.8906 334.5,54.8906 Q333.7344,54.8906 333.0938,55.2188 Q332.4688,55.5469 331.9688,56.2969 Q331.4844,57.0469 331.4844,58.0781 L331.4844,59.1719 Q331.4844,60.4063 332.375,61.2344 Q333.2656,62.0469 334.8594,62.0469 Q335.7969,62.0469 336.4531,61.7969 Q336.8438,61.6406 337.2656,61.2031 Q337.5313,60.9375 337.6719,60.8594 Q337.8281,60.7813 338.0313,60.7813 Q338.3594,60.7813 338.6094,61.0469 Q338.875,61.2969 338.875,61.6406 Q338.875,61.9844 338.5313,62.3906 Q338.0313,62.9688 337.2344,63.2969 Q336.1563,63.75 334.8594,63.75 Q333.3438,63.75 332.1406,63.125 Q331.1563,62.625 330.4688,61.5625 Q329.7813,60.4844 329.7813,59.2031 L329.7813,58.0469 Q329.7813,56.7188 330.3906,55.5781 Q331.0156,54.4219 332.1094,53.8125 Q333.2031,53.1875 334.4375,53.1875 Q335.1719,53.1875 335.8125,53.3594 Q336.4688,53.5156 337.0156,53.875 Z " fill="#000000"/><text fill="#000000" font-family="sans-serif" font-size="14" lengthAdjust="spacing" textLength="33" x="354.75" y="63.7285">client</text><line style="stroke:#181818;stroke-width:0.5;" x1="218" x2="492" y1="74" y2="74"/><text fill="#000000" font-family="sans-serif" font-size="14" lengthAdjust="spacing" textLength="79" x="223" y="92.5332">Id_client : int</text><text fill="#000000" font-family="sans-serif" font-size="14" lengthAdjust="spacing" textLength="75" x="223" y="110.1426">Nom : string</text><text fill="#000000" font-family="sans-serif" font-size="14" lengthAdjust="spacing" textLength="96" x="223" y="127.752">Pr&#233;nom : string</text><text fill="#000000" font-family="sans-serif" font-size="14" lengthAdjust="spacing" textLength="87" x="223" y="145.3613">Genre : string</text><text fill="#000000" font-family="sans-serif" font-size="14" lengthAdjust="spacing" textLength="146" x="223" y="162.9707">Adresse_Postal : string</text><text fill="#000000" font-family="sans-serif" font-size="14" lengthAdjust="spacing" textLength="108" x="223" y="180.5801">Code_Postal : int</text><text fill="#000000" font-family="sans-serif" font-size="14" lengthAdjust="spacing" textLength="73" x="223" y="198.1895">Ville : string</text><text fill="#000000" font-family="sans-serif" font-size="14" lengthAdjust="spacing" textLength="115" x="223" y="215.7988">T&#233;l&#233;phone : string</text><text fill="#000000" font-family="sans-serif" font-size="14" lengthAdjust="spacing" textLength="132" x="223" y="233.4082">Adresse_mail : string</text><text fill="#000000" font-family="sans-serif" font-size="14" lengthAdjust="spacing" textLength="264" x="223" y="251.0176">Commande_en_cours : list[Id_commande]</text><text fill="#000000" font-family="sans-serif" font-size="14" lengthAdjust="spacing" textLength="261" x="223" y="268.627">Historique_commande: list[Id_commande]</text><text fill="#000000" font-family="sans-serif" font-size="14" lengthAdjust="spacing" textLength="135" x="223" y="286.2363">Newsletters : boolean</text><text fill="#000000" font-family="sans-serif" font-size="14" lengthAdjust="spacing" textLength="106" x="223" y="303.8457">Solde : d&#233;cimal()</text><line style="stroke:#181818;stroke-width:0.5;" x1="218" x2="492" y1="310.9219" y2="310.9219"/></g><!--class commande--><g id="elem_commande"><rect codeLine="20" fill="#F1F1F1" height="206.4844" id="commande" rx="2.5" ry="2.5" style="stroke:#181818;stroke-width:0.5;" width="396" x="243" y="397"/><ellipse cx="402.25" cy="413" fill="#ADD1B2" rx="11" ry="11" style="stroke:#181818;stroke-width:1.0;"/><path d="M405.0156,408.875 Q405.1719,408.6563 405.3594,408.5469 Q405.5469,408.4375 405.7656,408.4375 Q406.1406,408.4375 406.375,408.7031 Q406.6094,408.9531 406.6094,409.5625 L406.6094,411.0156 Q406.6094,411.625 406.375,411.8906 Q406.1406,412.1563 405.7656,412.1563 Q405.4219,412.1563 405.2188,411.9531 Q405.0156,411.7656 404.9063,411.25 Q404.8594,410.8906 404.6719,410.7031 Q404.3438,410.3281 403.7344,410.1094 Q403.125,409.8906 402.5,409.8906 Q401.7344,409.8906 401.0938,410.2188 Q400.4688,410.5469 399.9688,411.2969 Q399.4844,412.0469 399.4844,413.0781 L399.4844,414.1719 Q399.4844,415.4063 400.375,416.2344 Q401.2656,417.0469 402.8594,417.0469 Q403.7969,417.0469 404.4531,416.7969 Q404.8438,416.6406 405.2656,416.2031 Q405.5313,415.9375 405.6719,415.8594 Q405.8281,415.7813 406.0313,415.7813 Q406.3594,415.7813 406.6094,416.0469 Q406.875,416.2969 406.875,416.6406 Q406.875,416.9844 406.5313,417.3906 Q406.0313,417.9688 405.2344,418.2969 Q404.1563,418.75 402.8594,418.75 Q401.3438,418.75 400.1406,418.125 Q399.1563,417.625 398.4688,416.5625 Q397.7813,415.4844 397.7813,414.2031 L397.7813,413.0469 Q397.7813,411.7188 398.3906,410.5781 Q399.0156,409.4219 400.1094,408.8125 Q401.2031,408.1875 402.4375,408.1875 Q403.1719,408.1875 403.8125,408.3594 Q404.4688,408.5156 405.0156,408.875 Z " fill="#000000"/><text fill="#000000" font-family="sans-serif" font-size="14" lengthAdjust="spacing" textLength="69" x="422.75" y="418.7285">commande</text><line style="stroke:#181818;stroke-width:0.5;" x1="244" x2="638" y1="429" y2="429"/><text fill="#000000" font-family="sans-serif" font-size="14" lengthAdjust="spacing" textLength="115" x="249" y="447.5332">Id_commande : int</text><text fill="#000000" font-family="sans-serif" font-size="14" lengthAdjust="spacing" textLength="79" x="249" y="465.1426">Id_client : int</text><text fill="#000000" font-family="sans-serif" font-size="14" lengthAdjust="spacing" textLength="175" x="249" y="482.752">Liste_id_objet : list[Id_objet]</text><text fill="#000000" font-family="sans-serif" font-size="14" lengthAdjust="spacing" textLength="136" x="249" y="500.3613">Quantit&#233;_d_objet : int</text><text fill="#000000" font-family="sans-serif" font-size="14" lengthAdjust="spacing" textLength="144" x="249" y="517.9707">Num&#233;ro_de_suivie : int</text><text fill="#000000" font-family="sans-serif" font-size="14" lengthAdjust="spacing" textLength="324" x="249" y="535.5801">Type_d_emballage : int je suis pas sur de le garder</text><text fill="#000000" font-family="sans-serif" font-size="14" lengthAdjust="spacing" textLength="384" x="249" y="553.1895">Etat : string =&gt; pour indiqu&#233; si c'est en cours, post&#233; ou arriv&#233;</text><text fill="#000000" font-family="sans-serif" font-size="14" lengthAdjust="spacing" textLength="97" x="249" y="570.7988">Prix : d&#233;cimal ()</text><text fill="#000000" font-family="sans-serif" font-size="14" lengthAdjust="spacing" textLength="109" x="249" y="588.4082">Poids : d&#233;cimal ()</text><line style="stroke:#181818;stroke-width:0.5;" x1="244" x2="638" y1="595.4844" y2="595.4844"/></g><!--class objet--><g id="elem_objet"><rect codeLine="33" fill="#F1F1F1" height="171.2656" id="objet" rx="2.5" ry="2.5" style="stroke:#181818;stroke-width:0.5;" width="237" x="172.5" y="681"/><ellipse cx="271.25" cy="697" fill="#ADD1B2" rx="11" ry="11" style="stroke:#181818;stroke-width:1.0;"/><path d="M274.0156,692.875 Q274.1719,692.6563 274.3594,692.5469 Q274.5469,692.4375 274.7656,692.4375 Q275.1406,692.4375 275.375,692.7031 Q275.6094,692.9531 275.6094,693.5625 L275.6094,695.0156 Q275.6094,695.625 275.375,695.8906 Q275.1406,696.1563 274.7656,696.1563 Q274.4219,696.1563 274.2188,695.9531 Q274.0156,695.7656 273.9063,695.25 Q273.8594,694.8906 273.6719,694.7031 Q273.3438,694.3281 272.7344,694.1094 Q272.125,693.8906 271.5,693.8906 Q270.7344,693.8906 270.0938,694.2188 Q269.4688,694.5469 268.9688,695.2969 Q268.4844,696.0469 268.4844,697.0781 L268.4844,698.1719 Q268.4844,699.4063 269.375,700.2344 Q270.2656,701.0469 271.8594,701.0469 Q272.7969,701.0469 273.4531,700.7969 Q273.8438,700.6406 274.2656,700.2031 Q274.5313,699.9375 274.6719,699.8594 Q274.8281,699.7813 275.0313,699.7813 Q275.3594,699.7813 275.6094,700.0469 Q275.875,700.2969 275.875,700.6406 Q275.875,700.9844 275.5313,701.3906 Q275.0313,701.9688 274.2344,702.2969 Q273.1563,702.75 271.8594,702.75 Q270.3438,702.75 269.1406,702.125 Q268.1563,701.625 267.4688,700.5625 Q266.7813,699.4844 266.7813,698.2031 L266.7813,697.0469 Q266.7813,695.7188 267.3906,694.5781 Q268.0156,693.4219 269.1094,692.8125 Q270.2031,692.1875 271.4375,692.1875 Q272.1719,692.1875 272.8125,692.3594 Q273.4688,692.5156 274.0156,692.875 Z " fill="#000000"/><text fill="#000000" font-family="sans-serif" font-size="14" lengthAdjust="spacing" textLength="31" x="291.75" y="702.7285">objet</text><line style="stroke:#181818;stroke-width:0.5;" x1="173.5" x2="408.5" y1="713" y2="713"/><text fill="#000000" font-family="sans-serif" font-size="14" lengthAdjust="spacing" textLength="77" x="178.5" y="731.5332">Id_objet : int</text><text fill="#000000" font-family="sans-serif" font-size="14" lengthAdjust="spacing" textLength="109" x="178.5" y="749.1426">Poids : d&#233;cimal ()</text><text fill="#000000" font-family="sans-serif" font-size="14" lengthAdjust="spacing" textLength="75" x="178.5" y="766.752">Nom : string</text><text fill="#000000" font-family="sans-serif" font-size="14" lengthAdjust="spacing" textLength="118" x="178.5" y="784.3613">Description : string</text><text fill="#000000" font-family="sans-serif" font-size="14" lengthAdjust="spacing" textLength="129" x="178.5" y="801.9707">Disponible : boolean</text><text fill="#000000" font-family="sans-serif" font-size="14" lengthAdjust="spacing" textLength="225" x="178.5" y="819.5801">Mod&#232;le : string pas sur de la garder</text><text fill="#000000" font-family="sans-serif" font-size="14" lengthAdjust="spacing" textLength="97" x="178.5" y="837.1895">Prix : d&#233;cimal ()</text><line style="stroke:#181818;stroke-width:0.5;" x1="173.5" x2="408.5" y1="844.2656" y2="844.2656"/></g><!--class Emballage--><g id="elem_Emballage"><rect codeLine="43" fill="#F1F1F1" height="136.0469" id="Emballage" rx="2.5" ry="2.5" style="stroke:#181818;stroke-width:0.5;" width="159" x="22.5" y="112.5"/><ellipse cx="64.95" cy="128.5" fill="#ADD1B2" rx="11" ry="11" style="stroke:#181818;stroke-width:1.0;"/><path d="M67.7156,124.375 Q67.8719,124.1563 68.0594,124.0469 Q68.2469,123.9375 68.4656,123.9375 Q68.8406,123.9375 69.075,124.2031 Q69.3094,124.4531 69.3094,125.0625 L69.3094,126.5156 Q69.3094,127.125 69.075,127.3906 Q68.8406,127.6563 68.4656,127.6563 Q68.1219,127.6563 67.9188,127.4531 Q67.7156,127.2656 67.6063,126.75 Q67.5594,126.3906 67.3719,126.2031 Q67.0438,125.8281 66.4344,125.6094 Q65.825,125.3906 65.2,125.3906 Q64.4344,125.3906 63.7938,125.7188 Q63.1688,126.0469 62.6688,126.7969 Q62.1844,127.5469 62.1844,128.5781 L62.1844,129.6719 Q62.1844,130.9063 63.075,131.7344 Q63.9656,132.5469 65.5594,132.5469 Q66.4969,132.5469 67.1531,132.2969 Q67.5438,132.1406 67.9656,131.7031 Q68.2313,131.4375 68.3719,131.3594 Q68.5281,131.2813 68.7313,131.2813 Q69.0594,131.2813 69.3094,131.5469 Q69.575,131.7969 69.575,132.1406 Q69.575,132.4844 69.2313,132.8906 Q68.7313,133.4688 67.9344,133.7969 Q66.8563,134.25 65.5594,134.25 Q64.0438,134.25 62.8406,133.625 Q61.8563,133.125 61.1688,132.0625 Q60.4813,130.9844 60.4813,129.7031 L60.4813,128.5469 Q60.4813,127.2188 61.0906,126.0781 Q61.7156,124.9219 62.8094,124.3125 Q63.9031,123.6875 65.1375,123.6875 Q65.8719,123.6875 66.5125,123.8594 Q67.1688,124.0156 67.7156,124.375 Z " fill="#000000"/><text fill="#000000" font-family="sans-serif" font-size="14" lengthAdjust="spacing" textLength="66" x="85.05" y="134.2285">Emballage</text><line style="stroke:#181818;stroke-width:0.5;" x1="23.5" x2="180.5" y1="144.5" y2="144.5"/><text fill="#000000" font-family="sans-serif" font-size="14" lengthAdjust="spacing" textLength="111" x="28.5" y="163.0332">Id_emballage : int</text><text fill="#000000" font-family="sans-serif" font-size="14" lengthAdjust="spacing" textLength="75" x="28.5" y="180.6426">Nom : string</text><text fill="#000000" font-family="sans-serif" font-size="14" lengthAdjust="spacing" textLength="144" x="28.5" y="198.252">Quantit&#233;_minimum : int</text><text fill="#000000" font-family="sans-serif" font-size="14" lengthAdjust="spacing" textLength="147" x="28.5" y="215.8613">Quantit&#233;_maximum : int</text><text fill="#000000" font-family="sans-serif" font-size="14" lengthAdjust="spacing" textLength="109" x="28.5" y="233.4707">Poids : d&#233;cimal ()</text><line style="stroke:#181818;stroke-width:0.5;" x1="23.5" x2="180.5" y1="240.5469" y2="240.5469"/></g><!--class Enseigne--><g id="elem_Enseigne"><rect codeLine="51" fill="#F1F1F1" height="118.4375" id="Enseigne" rx="2.5" ry="2.5" style="stroke:#181818;stroke-width:0.5;" width="155" x="528.5" y="121.5"/><ellipse cx="572.3" cy="137.5" fill="#ADD1B2" rx="11" ry="11" style="stroke:#181818;stroke-width:1.0;"/><path d="M575.0656,133.375 Q575.2219,133.1563 575.4094,133.0469 Q575.5969,132.9375 575.8156,132.9375 Q576.1906,132.9375 576.425,133.2031 Q576.6594,133.4531 576.6594,134.0625 L576.6594,135.5156 Q576.6594,136.125 576.425,136.3906 Q576.1906,136.6563 575.8156,136.6563 Q575.4719,136.6563 575.2688,136.4531 Q575.0656,136.2656 574.9563,135.75 Q574.9094,135.3906 574.7219,135.2031 Q574.3938,134.8281 573.7844,134.6094 Q573.175,134.3906 572.55,134.3906 Q571.7844,134.3906 571.1438,134.7188 Q570.5188,135.0469 570.0188,135.7969 Q569.5344,136.5469 569.5344,137.5781 L569.5344,138.6719 Q569.5344,139.9063 570.425,140.7344 Q571.3156,141.5469 572.9094,141.5469 Q573.8469,141.5469 574.5031,141.2969 Q574.8938,141.1406 575.3156,140.7031 Q575.5813,140.4375 575.7219,140.3594 Q575.8781,140.2813 576.0813,140.2813 Q576.4094,140.2813 576.6594,140.5469 Q576.925,140.7969 576.925,141.1406 Q576.925,141.4844 576.5813,141.8906 Q576.0813,142.4688 575.2844,142.7969 Q574.2063,143.25 572.9094,143.25 Q571.3938,143.25 570.1906,142.625 Q569.2063,142.125 568.5188,141.0625 Q567.8313,139.9844 567.8313,138.7031 L567.8313,137.5469 Q567.8313,136.2188 568.4406,135.0781 Q569.0656,133.9219 570.1594,133.3125 Q571.2531,132.6875 572.4875,132.6875 Q573.2219,132.6875 573.8625,132.8594 Q574.5188,133.0156 575.0656,133.375 Z " fill="#000000"/><text fill="#000000" font-family="sans-serif" font-size="14" lengthAdjust="spacing" textLength="59" x="592.7" y="143.2285">Enseigne</text><line style="stroke:#181818;stroke-width:0.5;" x1="529.5" x2="682.5" y1="153.5" y2="153.5"/><text fill="#000000" font-family="sans-serif" font-size="14" lengthAdjust="spacing" textLength="143" x="534.5" y="172.0332">Num&#233;ro_Enseigne : int</text><text fill="#000000" font-family="sans-serif" font-size="14" lengthAdjust="spacing" textLength="142" x="534.5" y="189.6426">Nom_Enseigne : string</text><text fill="#000000" font-family="sans-serif" font-size="14" lengthAdjust="spacing" textLength="73" x="534.5" y="207.252">Ville : string</text><text fill="#000000" font-family="sans-serif" font-size="14" lengthAdjust="spacing" textLength="109" x="534.5" y="224.8613">D&#233;partement : int</text><line style="stroke:#181818;stroke-width:0.5;" x1="529.5" x2="682.5" y1="231.9375" y2="231.9375"/></g><!--class Utilisateur--><g id="elem_Utilisateur"><rect codeLine="58" fill="#F1F1F1" height="83.2188" id="Utilisateur" rx="2.5" ry="2.5" style="stroke:#181818;stroke-width:0.5;" width="119" x="718.5" y="139"/><ellipse cx="744.75" cy="155" fill="#ADD1B2" rx="11" ry="11" style="stroke:#181818;stroke-width:1.0;"/><path d="M747.5156,150.875 Q747.6719,150.6563 747.8594,150.5469 Q748.0469,150.4375 748.2656,150.4375 Q748.6406,150.4375 748.875,150.7031 Q749.1094,150.9531 749.1094,151.5625 L749.1094,153.0156 Q749.1094,153.625 748.875,153.8906 Q748.6406,154.1563 748.2656,154.1563 Q747.9219,154.1563 747.7188,153.9531 Q747.5156,153.7656 747.4063,153.25 Q747.3594,152.8906 747.1719,152.7031 Q746.8438,152.3281 746.2344,152.1094 Q745.625,151.8906 745,151.8906 Q744.2344,151.8906 743.5938,152.2188 Q742.9688,152.5469 742.4688,153.2969 Q741.9844,154.0469 741.9844,155.0781 L741.9844,156.1719 Q741.9844,157.4063 742.875,158.2344 Q743.7656,159.0469 745.3594,159.0469 Q746.2969,159.0469 746.9531,158.7969 Q747.3438,158.6406 747.7656,158.2031 Q748.0313,157.9375 748.1719,157.8594 Q748.3281,157.7813 748.5313,157.7813 Q748.8594,157.7813 749.1094,158.0469 Q749.375,158.2969 749.375,158.6406 Q749.375,158.9844 749.0313,159.3906 Q748.5313,159.9688 747.7344,160.2969 Q746.6563,160.75 745.3594,160.75 Q743.8438,160.75 742.6406,160.125 Q741.6563,159.625 740.9688,158.5625 Q740.2813,157.4844 740.2813,156.2031 L740.2813,155.0469 Q740.2813,153.7188 740.8906,152.5781 Q741.5156,151.4219 742.6094,150.8125 Q743.7031,150.1875 744.9375,150.1875 Q745.6719,150.1875 746.3125,150.3594 Q746.9688,150.5156 747.5156,150.875 Z " fill="#000000"/><text fill="#000000" font-family="sans-serif" font-size="14" lengthAdjust="spacing" textLength="62" x="761.25" y="160.7285">Utilisateur</text><line style="stroke:#181818;stroke-width:0.5;" x1="719.5" x2="836.5" y1="171" y2="171"/><text fill="#000000" font-family="sans-serif" font-size="14" lengthAdjust="spacing" textLength="107" x="724.5" y="189.5332">Id_utilisateur : int</text><text fill="#000000" font-family="sans-serif" font-size="14" lengthAdjust="spacing" textLength="75" x="724.5" y="207.1426">Nom : string</text><line style="stroke:#181818;stroke-width:0.5;" x1="719.5" x2="836.5" y1="214.2188" y2="214.2188"/></g><!--class Timbre--><g id="elem_Timbre"><rect codeLine="63" fill="#F1F1F1" height="83.2188" id="Timbre" rx="2.5" ry="2.5" style="stroke:#181818;stroke-width:0.5;" width="140" x="674" y="458.5"/><ellipse cx="717.8" cy="474.5" fill="#ADD1B2" rx="11" ry="11" style="stroke:#181818;stroke-width:1.0;"/><path d="M720.5656,470.375 Q720.7219,470.1563 720.9094,470.0469 Q721.0969,469.9375 721.3156,469.9375 Q721.6906,469.9375 721.925,470.2031 Q722.1594,470.4531 722.1594,471.0625 L722.1594,472.5156 Q722.1594,473.125 721.925,473.3906 Q721.6906,473.6563 721.3156,473.6563 Q720.9719,473.6563 720.7688,473.4531 Q720.5656,473.2656 720.4563,472.75 Q720.4094,472.3906 720.2219,472.2031 Q719.8938,471.8281 719.2844,471.6094 Q718.675,471.3906 718.05,471.3906 Q717.2844,471.3906 716.6438,471.7188 Q716.0188,472.0469 715.5188,472.7969 Q715.0344,473.5469 715.0344,474.5781 L715.0344,475.6719 Q715.0344,476.9063 715.925,477.7344 Q716.8156,478.5469 718.4094,478.5469 Q719.3469,478.5469 720.0031,478.2969 Q720.3938,478.1406 720.8156,477.7031 Q721.0813,477.4375 721.2219,477.3594 Q721.3781,477.2813 721.5813,477.2813 Q721.9094,477.2813 722.1594,477.5469 Q722.425,477.7969 722.425,478.1406 Q722.425,478.4844 722.0813,478.8906 Q721.5813,479.4688 720.7844,479.7969 Q719.7063,480.25 718.4094,480.25 Q716.8938,480.25 715.6906,479.625 Q714.7063,479.125 714.0188,478.0625 Q713.3313,476.9844 713.3313,475.7031 L713.3313,474.5469 Q713.3313,473.2188 713.9406,472.0781 Q714.5656,470.9219 715.6594,470.3125 Q716.7531,469.6875 717.9875,469.6875 Q718.7219,469.6875 719.3625,469.8594 Q720.0188,470.0156 720.5656,470.375 Z " fill="#000000"/><text fill="#000000" font-family="sans-serif" font-size="14" lengthAdjust="spacing" textLength="44" x="738.2" y="480.2285">Timbre</text><line style="stroke:#181818;stroke-width:0.5;" x1="675" x2="813" y1="490.5" y2="490.5"/><text fill="#000000" font-family="sans-serif" font-size="14" lengthAdjust="spacing" textLength="128" x="680" y="509.0332">Poids_maximum : int</text><text fill="#000000" font-family="sans-serif" font-size="14" lengthAdjust="spacing" textLength="97" x="680" y="526.6426">Prix : d&#233;cimal ()</text><line style="stroke:#181818;stroke-width:0.5;" x1="675" x2="813" y1="533.7188" y2="533.7188"/></g><!--class Creation_de_commande--><g id="elem_Creation_de_commande"><rect codeLine="78" fill="#F1F1F1" height="83.2188" id="Creation_de_commande" rx="2.5" ry="2.5" style="stroke:#181818;stroke-width:0.5;" width="187" x="3416.5" y="139"/><ellipse cx="3431.5" cy="155" fill="#B4A7E5" rx="11" ry="11" style="stroke:#181818;stroke-width:1.0;"/><path d="M3432.4531,151.6406 L3432.4531,158.2969 L3434.1719,158.2969 Q3434.7813,158.2969 3435.0469,158.5313 Q3435.3125,158.7656 3435.3125,159.1563 Q3435.3125,159.5313 3435.0469,159.7656 Q3434.7813,160 3434.1719,160 L3429.0313,160 Q3428.4219,160 3428.1563,159.7656 Q3427.8906,159.5313 3427.8906,159.1406 Q3427.8906,158.7656 3428.1563,158.5313 Q3428.4219,158.2969 3429.0313,158.2969 L3430.75,158.2969 L3430.75,151.6406 L3429.0313,151.6406 Q3428.4219,151.6406 3428.1563,151.4063 Q3427.8906,151.1719 3427.8906,150.7813 Q3427.8906,150.4063 3428.1563,150.1719 Q3428.4219,149.9375 3429.0313,149.9375 L3434.1719,149.9375 Q3434.7813,149.9375 3435.0469,150.1719 Q3435.3125,150.4063 3435.3125,150.7813 Q3435.3125,151.1719 3435.0469,151.4063 Q3434.7813,151.6406 3434.1719,151.6406 L3432.4531,151.6406 Z " fill="#000000"/><text fill="#000000" font-family="sans-serif" font-size="14" font-style="italic" lengthAdjust="spacing" textLength="155" x="3445.5" y="160.7285">Creation_de_commande</text><line style="stroke:#181818;stroke-width:0.5;" x1="3417.5" x2="3602.5" y1="171" y2="171"/><line style="stroke:#181818;stroke-width:0.5;" x1="3417.5" x2="3602.5" y1="179" y2="179"/><ellipse cx="3427.5" cy="193.3047" fill="#84BE84" rx="3" ry="3" style="stroke:#038048;stroke-width:1.0;"/><text fill="#000000" font-family="sans-serif" font-size="14" lengthAdjust="spacing" textLength="118" x="3436.5" y="197.5332">CreerCommande()</text><ellipse cx="3427.5" cy="210.9141" fill="#84BE84" rx="3" ry="3" style="stroke:#038048;stroke-width:1.0;"/><text fill="#000000" font-family="sans-serif" font-size="14" lengthAdjust="spacing" textLength="56" x="3436.5" y="215.1426">setNext()</text></g><!--class Base_Creation_de_commande--><g id="elem_Base_Creation_de_commande"><rect codeLine="83" fill="#F1F1F1" height="100.8281" id="Base_Creation_de_commande" rx="2.5" ry="2.5" style="stroke:#181818;stroke-width:0.5;" width="227" x="3396.5" y="449.5"/><ellipse cx="3411.5" cy="465.5" fill="#A9DCDF" rx="11" ry="11" style="stroke:#181818;stroke-width:1.0;"/><path d="M3413.6875,467.2656 L3409.5469,467.2656 L3409.125,468.2969 L3409.5469,468.2969 Q3410.1563,468.2969 3410.4219,468.5313 Q3410.6875,468.7656 3410.6875,469.1563 Q3410.6875,469.5313 3410.4219,469.7656 Q3410.1563,470 3409.5469,470 L3407.25,470 Q3406.6406,470 3406.3906,469.7656 Q3406.125,469.5313 3406.125,469.1406 Q3406.125,468.7656 3406.4063,468.5313 Q3406.6719,468.2813 3407.2969,468.2969 L3409.9688,461.6406 L3408.8594,461.6406 Q3408.25,461.6406 3407.9844,461.4063 Q3407.7188,461.1719 3407.7188,460.7813 Q3407.7188,460.4063 3407.9844,460.1719 Q3408.25,459.9375 3408.8594,459.9375 L3412.5313,459.9375 L3415.9219,468.2969 Q3416.5156,468.2969 3416.7031,468.4375 Q3417.0938,468.7031 3417.0938,469.1563 Q3417.0938,469.5313 3416.8281,469.7656 Q3416.5781,470 3415.9688,470 L3413.6719,470 Q3413.0625,470 3412.7969,469.7656 Q3412.5313,469.5313 3412.5313,469.1406 Q3412.5313,468.7656 3412.7969,468.5313 Q3413.0625,468.2969 3413.6719,468.2969 L3414.0938,468.2969 L3413.6875,467.2656 Z M3412.9688,465.5625 L3411.6094,462.1875 L3410.2344,465.5625 L3412.9688,465.5625 Z " fill="#000000"/><text fill="#000000" font-family="sans-serif" font-size="14" font-style="italic" lengthAdjust="spacing" textLength="195" x="3425.5" y="471.2285">Base_Creation_de_commande</text><line style="stroke:#181818;stroke-width:0.5;" x1="3397.5" x2="3622.5" y1="481.5" y2="481.5"/><rect fill="none" height="6" style="stroke:#C82930;stroke-width:1.0;" width="6" x="3404.5" y="492.8047"/><text fill="#000000" font-family="sans-serif" font-size="14" lengthAdjust="spacing" textLength="87" x="3416.5" y="500.0332">next : Handler</text><line style="stroke:#181818;stroke-width:0.5;" x1="3397.5" x2="3622.5" y1="507.1094" y2="507.1094"/><ellipse cx="3407.5" cy="521.4141" fill="#84BE84" rx="3" ry="3" style="stroke:#038048;stroke-width:1.0;"/><text fill="#000000" font-family="sans-serif" font-size="14" lengthAdjust="spacing" textLength="105" x="3416.5" y="525.6426">setNext(Handler)</text><ellipse cx="3407.5" cy="539.0234" fill="#84BE84" rx="3" ry="3" style="stroke:#038048;stroke-width:1.0;"/><text fill="#000000" font-family="sans-serif" font-size="14" lengthAdjust="spacing" textLength="118" x="3416.5" y="543.252">CreerCommande()</text></g><polygon fill="none" points="3510,550.3281,3517,570.3281,3503,570.3281" style="stroke:#181818;stroke-width:1.0;"/><line style="stroke:#181818;stroke-width:1.0;" x1="3510" x2="3510" y1="570.3281" y2="572"/><line style="stroke:#181818;stroke-width:1.0;" x1="3510" x2="3510" y1="449.5" y2="429.41"/><!--class Handler_Produits--><g id="elem_Handler_Produits"><rect codeLine="89" fill="#F1F1F1" height="100.8281" id="Handler_Produits" rx="2.5" ry="2.5" style="stroke:#181818;stroke-width:0.5;" width="225" x="3006.5" y="716"/><ellipse cx="3060.25" cy="732" fill="#ADD1B2" rx="11" ry="11" style="stroke:#181818;stroke-width:1.0;"/><path d="M3063.0156,727.875 Q3063.1719,727.6563 3063.3594,727.5469 Q3063.5469,727.4375 3063.7656,727.4375 Q3064.1406,727.4375 3064.375,727.7031 Q3064.6094,727.9531 3064.6094,728.5625 L3064.6094,730.0156 Q3064.6094,730.625 3064.375,730.8906 Q3064.1406,731.1563 3063.7656,731.1563 Q3063.4219,731.1563 3063.2188,730.9531 Q3063.0156,730.7656 3062.9063,730.25 Q3062.8594,729.8906 3062.6719,729.7031 Q3062.3438,729.3281 3061.7344,729.1094 Q3061.125,728.8906 3060.5,728.8906 Q3059.7344,728.8906 3059.0938,729.2188 Q3058.4688,729.5469 3057.9688,730.2969 Q3057.4844,731.0469 3057.4844,732.0781 L3057.4844,733.1719 Q3057.4844,734.4063 3058.375,735.2344 Q3059.2656,736.0469 3060.8594,736.0469 Q3061.7969,736.0469 3062.4531,735.7969 Q3062.8438,735.6406 3063.2656,735.2031 Q3063.5313,734.9375 3063.6719,734.8594 Q3063.8281,734.7813 3064.0313,734.7813 Q3064.3594,734.7813 3064.6094,735.0469 Q3064.875,735.2969 3064.875,735.6406 Q3064.875,735.9844 3064.5313,736.3906 Q3064.0313,736.9688 3063.2344,737.2969 Q3062.1563,737.75 3060.8594,737.75 Q3059.3438,737.75 3058.1406,737.125 Q3057.1563,736.625 3056.4688,735.5625 Q3055.7813,734.4844 3055.7813,733.2031 L3055.7813,732.0469 Q3055.7813,730.7188 3056.3906,729.5781 Q3057.0156,728.4219 3058.1094,727.8125 Q3059.2031,727.1875 3060.4375,727.1875 Q3061.1719,727.1875 3061.8125,727.3594 Q3062.4688,727.5156 3063.0156,727.875 Z " fill="#000000"/><text fill="#000000" font-family="sans-serif" font-size="14" lengthAdjust="spacing" textLength="109" x="3080.75" y="737.7285">Handler_Produits</text><line style="stroke:#181818;stroke-width:0.5;" x1="3007.5" x2="3230.5" y1="748" y2="748"/><line style="stroke:#181818;stroke-width:0.5;" x1="3007.5" x2="3230.5" y1="756" y2="756"/><ellipse cx="3017.5" cy="770.3047" fill="#84BE84" rx="3" ry="3" style="stroke:#038048;stroke-width:1.0;"/><text fill="#000000" font-family="sans-serif" font-size="14" lengthAdjust="spacing" textLength="97" x="3026.5" y="774.5332">ChoixProduits()</text><ellipse cx="3017.5" cy="787.9141" fill="#84BE84" rx="3" ry="3" style="stroke:#038048;stroke-width:1.0;"/><text fill="#000000" font-family="sans-serif" font-size="14" lengthAdjust="spacing" textLength="199" x="3026.5" y="792.1426">VerificationDesStocksProduits()</text><ellipse cx="3017.5" cy="805.5234" fill="#84BE84" rx="3" ry="3" style="stroke:#038048;stroke-width:1.0;"/><text fill="#000000" font-family="sans-serif" font-size="14" lengthAdjust="spacing" textLength="105" x="3026.5" y="809.752">setNext(Handler)</text></g><!--class Handler_Emballage--><g id="elem_Handler_Emballage"><rect codeLine="95" fill="#F1F1F1" height="100.8281" id="Handler_Emballage" rx="2.5" ry="2.5" style="stroke:#181818;stroke-width:0.5;" width="232" x="3267" y="716"/><ellipse cx="3317.25" cy="732" fill="#ADD1B2" rx="11" ry="11" style="stroke:#181818;stroke-width:1.0;"/><path d="M3320.0156,727.875 Q3320.1719,727.6563 3320.3594,727.5469 Q3320.5469,727.4375 3320.7656,727.4375 Q3321.1406,727.4375 3321.375,727.7031 Q3321.6094,727.9531 3321.6094,728.5625 L3321.6094,730.0156 Q3321.6094,730.625 3321.375,730.8906 Q3321.1406,731.1563 3320.7656,731.1563 Q3320.4219,731.1563 3320.2188,730.9531 Q3320.0156,730.7656 3319.9063,730.25 Q3319.8594,729.8906 3319.6719,729.7031 Q3319.3438,729.3281 3318.7344,729.1094 Q3318.125,728.8906 3317.5,728.8906 Q3316.7344,728.8906 3316.0938,729.2188 Q3315.4688,729.5469 3314.9688,730.2969 Q3314.4844,731.0469 3314.4844,732.0781 L3314.4844,733.1719 Q3314.4844,734.4063 3315.375,735.2344 Q3316.2656,736.0469 3317.8594,736.0469 Q3318.7969,736.0469 3319.4531,735.7969 Q3319.8438,735.6406 3320.2656,735.2031 Q3320.5313,734.9375 3320.6719,734.8594 Q3320.8281,734.7813 3321.0313,734.7813 Q3321.3594,734.7813 3321.6094,735.0469 Q3321.875,735.2969 3321.875,735.6406 Q3321.875,735.9844 3321.5313,736.3906 Q3321.0313,736.9688 3320.2344,737.2969 Q3319.1563,737.75 3317.8594,737.75 Q3316.3438,737.75 3315.1406,737.125 Q3314.1563,736.625 3313.4688,735.5625 Q3312.7813,734.4844 3312.7813,733.2031 L3312.7813,732.0469 Q3312.7813,730.7188 3313.3906,729.5781 Q3314.0156,728.4219 3315.1094,727.8125 Q3316.2031,727.1875 3317.4375,727.1875 Q3318.1719,727.1875 3318.8125,727.3594 Q3319.4688,727.5156 3320.0156,727.875 Z " fill="#000000"/><text fill="#000000" font-family="sans-serif" font-size="14" lengthAdjust="spacing" textLength="123" x="3337.75" y="737.7285">Handler_Emballage</text><line style="stroke:#181818;stroke-width:0.5;" x1="3268" x2="3498" y1="748" y2="748"/><line style="stroke:#181818;stroke-width:0.5;" x1="3268" x2="3498" y1="756" y2="756"/><ellipse cx="3278" cy="770.3047" fill="#84BE84" rx="3" ry="3" style="stroke:#038048;stroke-width:1.0;"/><text fill="#000000" font-family="sans-serif" font-size="14" lengthAdjust="spacing" textLength="111" x="3287" y="774.5332">ChoixEmballage()</text><ellipse cx="3278" cy="787.9141" fill="#84BE84" rx="3" ry="3" style="stroke:#038048;stroke-width:1.0;"/><text fill="#000000" font-family="sans-serif" font-size="14" lengthAdjust="spacing" textLength="206" x="3287" y="792.1426">VerificationDesStockEmballage()</text><ellipse cx="3278" cy="805.5234" fill="#84BE84" rx="3" ry="3" style="stroke:#038048;stroke-width:1.0;"/><text fill="#000000" font-family="sans-serif" font-size="14" lengthAdjust="spacing" textLength="105" x="3287" y="809.752">setNext(Handler)</text></g><!--class Handler_conditionnement--><g id="elem_Handler_conditionnement"><rect codeLine="101" fill="#F1F1F1" height="100.8281" id="Handler_conditionnement" rx="2.5" ry="2.5" style="stroke:#181818;stroke-width:0.5;" width="206" x="3534" y="716"/><ellipse cx="3554.85" cy="732" fill="#ADD1B2" rx="11" ry="11" style="stroke:#181818;stroke-width:1.0;"/><path d="M3557.6156,727.875 Q3557.7719,727.6563 3557.9594,727.5469 Q3558.1469,727.4375 3558.3656,727.4375 Q3558.7406,727.4375 3558.975,727.7031 Q3559.2094,727.9531 3559.2094,728.5625 L3559.2094,730.0156 Q3559.2094,730.625 3558.975,730.8906 Q3558.7406,731.1563 3558.3656,731.1563 Q3558.0219,731.1563 3557.8188,730.9531 Q3557.6156,730.7656 3557.5063,730.25 Q3557.4594,729.8906 3557.2719,729.7031 Q3556.9438,729.3281 3556.3344,729.1094 Q3555.725,728.8906 3555.1,728.8906 Q3554.3344,728.8906 3553.6938,729.2188 Q3553.0688,729.5469 3552.5688,730.2969 Q3552.0844,731.0469 3552.0844,732.0781 L3552.0844,733.1719 Q3552.0844,734.4063 3552.975,735.2344 Q3553.8656,736.0469 3555.4594,736.0469 Q3556.3969,736.0469 3557.0531,735.7969 Q3557.4438,735.6406 3557.8656,735.2031 Q3558.1313,734.9375 3558.2719,734.8594 Q3558.4281,734.7813 3558.6313,734.7813 Q3558.9594,734.7813 3559.2094,735.0469 Q3559.475,735.2969 3559.475,735.6406 Q3559.475,735.9844 3559.1313,736.3906 Q3558.6313,736.9688 3557.8344,737.2969 Q3556.7563,737.75 3555.4594,737.75 Q3553.9438,737.75 3552.7406,737.125 Q3551.7563,736.625 3551.0688,735.5625 Q3550.3813,734.4844 3550.3813,733.2031 L3550.3813,732.0469 Q3550.3813,730.7188 3550.9906,729.5781 Q3551.6156,728.4219 3552.7094,727.8125 Q3553.8031,727.1875 3555.0375,727.1875 Q3555.7719,727.1875 3556.4125,727.3594 Q3557.0688,727.5156 3557.6156,727.875 Z " fill="#000000"/><text fill="#000000" font-family="sans-serif" font-size="14" lengthAdjust="spacing" textLength="161" x="3570.15" y="737.7285">Handler_conditionnement</text><line style="stroke:#181818;stroke-width:0.5;" x1="3535" x2="3739" y1="748" y2="748"/><line style="stroke:#181818;stroke-width:0.5;" x1="3535" x2="3739" y1="756" y2="756"/><ellipse cx="3545" cy="770.3047" fill="#84BE84" rx="3" ry="3" style="stroke:#038048;stroke-width:1.0;"/><text fill="#000000" font-family="sans-serif" font-size="14" lengthAdjust="spacing" textLength="157" x="3554" y="774.5332">CalculDesFraisDePorts()</text><ellipse cx="3545" cy="787.9141" fill="#84BE84" rx="3" ry="3" style="stroke:#038048;stroke-width:1.0;"/><text fill="#000000" font-family="sans-serif" font-size="14" lengthAdjust="spacing" textLength="180" x="3554" y="792.1426">ValidationDesFraisDePorts()</text><ellipse cx="3545" cy="805.5234" fill="#84BE84" rx="3" ry="3" style="stroke:#038048;stroke-width:1.0;"/><text fill="#000000" font-family="sans-serif" font-size="14" lengthAdjust="spacing" textLength="105" x="3554" y="809.752">setNext(Handler)</text></g><!--class Handler_suivie_commande--><g id="elem_Handler_suivie_commande"><rect codeLine="107" fill="#F1F1F1" height="83.2188" id="Handler_suivie_commande" rx="2.5" ry="2.5" style="stroke:#181818;stroke-width:0.5;" width="202" x="3775" y="725"/><ellipse cx="3790" cy="741" fill="#ADD1B2" rx="11" ry="11" style="stroke:#181818;stroke-width:1.0;"/><path d="M3792.7656,736.875 Q3792.9219,736.6563 3793.1094,736.5469 Q3793.2969,736.4375 3793.5156,736.4375 Q3793.8906,736.4375 3794.125,736.7031 Q3794.3594,736.9531 3794.3594,737.5625 L3794.3594,739.0156 Q3794.3594,739.625 3794.125,739.8906 Q3793.8906,740.1563 3793.5156,740.1563 Q3793.1719,740.1563 3792.9688,739.9531 Q3792.7656,739.7656 3792.6563,739.25 Q3792.6094,738.8906 3792.4219,738.7031 Q3792.0938,738.3281 3791.4844,738.1094 Q3790.875,737.8906 3790.25,737.8906 Q3789.4844,737.8906 3788.8438,738.2188 Q3788.2188,738.5469 3787.7188,739.2969 Q3787.2344,740.0469 3787.2344,741.0781 L3787.2344,742.1719 Q3787.2344,743.4063 3788.125,744.2344 Q3789.0156,745.0469 3790.6094,745.0469 Q3791.5469,745.0469 3792.2031,744.7969 Q3792.5938,744.6406 3793.0156,744.2031 Q3793.2813,743.9375 3793.4219,743.8594 Q3793.5781,743.7813 3793.7813,743.7813 Q3794.1094,743.7813 3794.3594,744.0469 Q3794.625,744.2969 3794.625,744.6406 Q3794.625,744.9844 3794.2813,745.3906 Q3793.7813,745.9688 3792.9844,746.2969 Q3791.9063,746.75 3790.6094,746.75 Q3789.0938,746.75 3787.8906,746.125 Q3786.9063,745.625 3786.2188,744.5625 Q3785.5313,743.4844 3785.5313,742.2031 L3785.5313,741.0469 Q3785.5313,739.7188 3786.1406,738.5781 Q3786.7656,737.4219 3787.8594,736.8125 Q3788.9531,736.1875 3790.1875,736.1875 Q3790.9219,736.1875 3791.5625,736.3594 Q3792.2188,736.5156 3792.7656,736.875 Z " fill="#000000"/><text fill="#000000" font-family="sans-serif" font-size="14" lengthAdjust="spacing" textLength="170" x="3804" y="746.7285">Handler_suivie_commande</text><line style="stroke:#181818;stroke-width:0.5;" x1="3776" x2="3976" y1="757" y2="757"/><line style="stroke:#181818;stroke-width:0.5;" x1="3776" x2="3976" y1="765" y2="765"/><ellipse cx="3786" cy="779.3047" fill="#84BE84" rx="3" ry="3" style="stroke:#038048;stroke-width:1.0;"/><text fill="#000000" font-family="sans-serif" font-size="14" lengthAdjust="spacing" textLength="175" x="3795" y="783.5332">ValiderLeNumeroDeSuivie()</text><ellipse cx="3786" cy="796.9141" fill="#84BE84" rx="3" ry="3" style="stroke:#038048;stroke-width:1.0;"/><text fill="#000000" font-family="sans-serif" font-size="14" lengthAdjust="spacing" textLength="105" x="3795" y="801.1426">setNext(Handler)</text></g><!--class Mail_personaliser--><g id="elem_Mail_personaliser"><rect codeLine="115" fill="#F1F1F1" height="65.6094" id="Mail_personaliser" rx="2.5" ry="2.5" style="stroke:#181818;stroke-width:0.5;" width="164" x="2511" y="467"/><ellipse cx="2535.45" cy="483" fill="#ADD1B2" rx="11" ry="11" style="stroke:#181818;stroke-width:1.0;"/><path d="M2538.2156,478.875 Q2538.3719,478.6563 2538.5594,478.5469 Q2538.7469,478.4375 2538.9656,478.4375 Q2539.3406,478.4375 2539.575,478.7031 Q2539.8094,478.9531 2539.8094,479.5625 L2539.8094,481.0156 Q2539.8094,481.625 2539.575,481.8906 Q2539.3406,482.1563 2538.9656,482.1563 Q2538.6219,482.1563 2538.4188,481.9531 Q2538.2156,481.7656 2538.1063,481.25 Q2538.0594,480.8906 2537.8719,480.7031 Q2537.5438,480.3281 2536.9344,480.1094 Q2536.325,479.8906 2535.7,479.8906 Q2534.9344,479.8906 2534.2938,480.2188 Q2533.6688,480.5469 2533.1688,481.2969 Q2532.6844,482.0469 2532.6844,483.0781 L2532.6844,484.1719 Q2532.6844,485.4063 2533.575,486.2344 Q2534.4656,487.0469 2536.0594,487.0469 Q2536.9969,487.0469 2537.6531,486.7969 Q2538.0438,486.6406 2538.4656,486.2031 Q2538.7313,485.9375 2538.8719,485.8594 Q2539.0281,485.7813 2539.2313,485.7813 Q2539.5594,485.7813 2539.8094,486.0469 Q2540.075,486.2969 2540.075,486.6406 Q2540.075,486.9844 2539.7313,487.3906 Q2539.2313,487.9688 2538.4344,488.2969 Q2537.3563,488.75 2536.0594,488.75 Q2534.5438,488.75 2533.3406,488.125 Q2532.3563,487.625 2531.6688,486.5625 Q2530.9813,485.4844 2530.9813,484.2031 L2530.9813,483.0469 Q2530.9813,481.7188 2531.5906,480.5781 Q2532.2156,479.4219 2533.3094,478.8125 Q2534.4031,478.1875 2535.6375,478.1875 Q2536.3719,478.1875 2537.0125,478.3594 Q2537.6688,478.5156 2538.2156,478.875 Z " fill="#000000"/><text fill="#000000" font-family="sans-serif" font-size="14" lengthAdjust="spacing" textLength="111" x="2551.55" y="488.7285">Mail_personaliser</text><line style="stroke:#181818;stroke-width:0.5;" x1="2512" x2="2674" y1="499" y2="499"/><line style="stroke:#181818;stroke-width:0.5;" x1="2512" x2="2674" y1="507" y2="507"/><text fill="#000000" font-family="sans-serif" font-size="14" lengthAdjust="spacing" textLength="152" x="2517" y="525.5332">ChoixClientAContacter()</text></g><!--class Newsletters--><g id="elem_Newsletters"><rect codeLine="119" fill="#F1F1F1" height="83.2188" id="Newsletters" rx="2.5" ry="2.5" style="stroke:#181818;stroke-width:0.5;" width="239" x="2710.5" y="458.5"/><ellipse cx="2789.75" cy="474.5" fill="#ADD1B2" rx="11" ry="11" style="stroke:#181818;stroke-width:1.0;"/><path d="M2792.5156,470.375 Q2792.6719,470.1563 2792.8594,470.0469 Q2793.0469,469.9375 2793.2656,469.9375 Q2793.6406,469.9375 2793.875,470.2031 Q2794.1094,470.4531 2794.1094,471.0625 L2794.1094,472.5156 Q2794.1094,473.125 2793.875,473.3906 Q2793.6406,473.6563 2793.2656,473.6563 Q2792.9219,473.6563 2792.7188,473.4531 Q2792.5156,473.2656 2792.4063,472.75 Q2792.3594,472.3906 2792.1719,472.2031 Q2791.8438,471.8281 2791.2344,471.6094 Q2790.625,471.3906 2790,471.3906 Q2789.2344,471.3906 2788.5938,471.7188 Q2787.9688,472.0469 2787.4688,472.7969 Q2786.9844,473.5469 2786.9844,474.5781 L2786.9844,475.6719 Q2786.9844,476.9063 2787.875,477.7344 Q2788.7656,478.5469 2790.3594,478.5469 Q2791.2969,478.5469 2791.9531,478.2969 Q2792.3438,478.1406 2792.7656,477.7031 Q2793.0313,477.4375 2793.1719,477.3594 Q2793.3281,477.2813 2793.5313,477.2813 Q2793.8594,477.2813 2794.1094,477.5469 Q2794.375,477.7969 2794.375,478.1406 Q2794.375,478.4844 2794.0313,478.8906 Q2793.5313,479.4688 2792.7344,479.7969 Q2791.6563,480.25 2790.3594,480.25 Q2788.8438,480.25 2787.6406,479.625 Q2786.6563,479.125 2785.9688,478.0625 Q2785.2813,476.9844 2785.2813,475.7031 L2785.2813,474.5469 Q2785.2813,473.2188 2785.8906,472.0781 Q2786.5156,470.9219 2787.6094,470.3125 Q2788.7031,469.6875 2789.9375,469.6875 Q2790.6719,469.6875 2791.3125,469.8594 Q2791.9688,470.0156 2792.5156,470.375 Z " fill="#000000"/><text fill="#000000" font-family="sans-serif" font-size="14" lengthAdjust="spacing" textLength="72" x="2810.25" y="480.2285">Newsletters</text><line style="stroke:#181818;stroke-width:0.5;" x1="2711.5" x2="2948.5" y1="490.5" y2="490.5"/><line style="stroke:#181818;stroke-width:0.5;" x1="2711.5" x2="2948.5" y1="498.5" y2="498.5"/><text fill="#000000" font-family="sans-serif" font-size="14" lengthAdjust="spacing" textLength="83" x="2716.5" y="517.0332">ListeClients()</text><text fill="#000000" font-family="sans-serif" font-size="14" lengthAdjust="spacing" textLength="227" x="2716.5" y="534.6426">GenerationCorpsMails(fichier_texte)</text></g><!--class Mail--><g id="elem_Mail"><rect codeLine="124" fill="#F1F1F1" height="100.8281" id="Mail" rx="2.5" ry="2.5" style="stroke:#181818;stroke-width:0.5;" width="144" x="2644" y="130"/><ellipse cx="2698.75" cy="146" fill="#A9DCDF" rx="11" ry="11" style="stroke:#181818;stroke-width:1.0;"/><path d="M2700.9375,147.7656 L2696.7969,147.7656 L2696.375,148.7969 L2696.7969,148.7969 Q2697.4063,148.7969 2697.6719,149.0313 Q2697.9375,149.2656 2697.9375,149.6563 Q2697.9375,150.0313 2697.6719,150.2656 Q2697.4063,150.5 2696.7969,150.5 L2694.5,150.5 Q2693.8906,150.5 2693.6406,150.2656 Q2693.375,150.0313 2693.375,149.6406 Q2693.375,149.2656 2693.6563,149.0313 Q2693.9219,148.7813 2694.5469,148.7969 L2697.2188,142.1406 L2696.1094,142.1406 Q2695.5,142.1406 2695.2344,141.9063 Q2694.9688,141.6719 2694.9688,141.2813 Q2694.9688,140.9063 2695.2344,140.6719 Q2695.5,140.4375 2696.1094,140.4375 L2699.7813,140.4375 L2703.1719,148.7969 Q2703.7656,148.7969 2703.9531,148.9375 Q2704.3438,149.2031 2704.3438,149.6563 Q2704.3438,150.0313 2704.0781,150.2656 Q2703.8281,150.5 2703.2188,150.5 L2700.9219,150.5 Q2700.3125,150.5 2700.0469,150.2656 Q2699.7813,150.0313 2699.7813,149.6406 Q2699.7813,149.2656 2700.0469,149.0313 Q2700.3125,148.7969 2700.9219,148.7969 L2701.3438,148.7969 L2700.9375,147.7656 Z M2700.2188,146.0625 L2698.8594,142.6875 L2697.4844,146.0625 L2700.2188,146.0625 Z " fill="#000000"/><text fill="#000000" font-family="sans-serif" font-size="14" font-style="italic" lengthAdjust="spacing" textLength="26" x="2719.25" y="151.7285">Mail</text><line style="stroke:#181818;stroke-width:0.5;" x1="2645" x2="2787" y1="162" y2="162"/><ellipse cx="2655" cy="176.3047" fill="none" rx="3" ry="3" style="stroke:#038048;stroke-width:1.0;"/><text fill="#000000" font-family="sans-serif" font-size="14" lengthAdjust="spacing" textLength="118" x="2664" y="180.5332">Corps_mail : string</text><line style="stroke:#181818;stroke-width:0.5;" x1="2645" x2="2787" y1="187.6094" y2="187.6094"/><text fill="#000000" font-family="sans-serif" font-size="14" lengthAdjust="spacing" textLength="105" x="2650" y="206.1426">VerficiationMail()</text><text fill="#000000" font-family="sans-serif" font-size="14" lengthAdjust="spacing" textLength="87" x="2650" y="223.752">EnvoyerMail()</text></g><polygon fill="none" points="2715.3006,230.8281,2722.0225,250.9233,2708.0239,250.7291" style="stroke:#181818;stroke-width:1.0;"/><line style="stroke:#181818;stroke-width:1.0;" x1="2715.0232" x2="2715" y1="250.8262" y2="252.5"/><!--class Impression_documents--><g id="elem_Impression_documents"><rect codeLine="133" fill="#F1F1F1" height="65.6094" id="Impression_documents" rx="2.5" ry="2.5" style="stroke:#181818;stroke-width:0.5;" width="178" x="1803" y="147.5"/><ellipse cx="1818" cy="163.5" fill="#B4A7E5" rx="11" ry="11" style="stroke:#181818;stroke-width:1.0;"/><path d="M1818.9531,160.1406 L1818.9531,166.7969 L1820.6719,166.7969 Q1821.2813,166.7969 1821.5469,167.0313 Q1821.8125,167.2656 1821.8125,167.6563 Q1821.8125,168.0313 1821.5469,168.2656 Q1821.2813,168.5 1820.6719,168.5 L1815.5313,168.5 Q1814.9219,168.5 1814.6563,168.2656 Q1814.3906,168.0313 1814.3906,167.6406 Q1814.3906,167.2656 1814.6563,167.0313 Q1814.9219,166.7969 1815.5313,166.7969 L1817.25,166.7969 L1817.25,160.1406 L1815.5313,160.1406 Q1814.9219,160.1406 1814.6563,159.9063 Q1814.3906,159.6719 1814.3906,159.2813 Q1814.3906,158.9063 1814.6563,158.6719 Q1814.9219,158.4375 1815.5313,158.4375 L1820.6719,158.4375 Q1821.2813,158.4375 1821.5469,158.6719 Q1821.8125,158.9063 1821.8125,159.2813 Q1821.8125,159.6719 1821.5469,159.9063 Q1821.2813,160.1406 1820.6719,160.1406 L1818.9531,160.1406 Z " fill="#000000"/><text fill="#000000" font-family="sans-serif" font-size="14" font-style="italic" lengthAdjust="spacing" textLength="146" x="1832" y="169.2285">Impression_documents</text><line style="stroke:#181818;stroke-width:0.5;" x1="1804" x2="1980" y1="179.5" y2="179.5"/><line style="stroke:#181818;stroke-width:0.5;" x1="1804" x2="1980" y1="187.5" y2="187.5"/><ellipse cx="1814" cy="201.8047" fill="#84BE84" rx="3" ry="3" style="stroke:#038048;stroke-width:1.0;"/><text fill="#000000" font-family="sans-serif" font-size="14" lengthAdjust="spacing" textLength="135" x="1823" y="206.0332">ImprimerDocuments()</text></g><!--class Impression_Documents--><g id="elem_Impression_Documents"><rect codeLine="137" fill="#F1F1F1" height="65.6094" id="Impression_Documents" rx="2.5" ry="2.5" style="stroke:#181818;stroke-width:0.5;" width="180" x="1802" y="467"/><ellipse cx="1817" cy="483" fill="#A9DCDF" rx="11" ry="11" style="stroke:#181818;stroke-width:1.0;"/><path d="M1819.1875,484.7656 L1815.0469,484.7656 L1814.625,485.7969 L1815.0469,485.7969 Q1815.6563,485.7969 1815.9219,486.0313 Q1816.1875,486.2656 1816.1875,486.6563 Q1816.1875,487.0313 1815.9219,487.2656 Q1815.6563,487.5 1815.0469,487.5 L1812.75,487.5 Q1812.1406,487.5 1811.8906,487.2656 Q1811.625,487.0313 1811.625,486.6406 Q1811.625,486.2656 1811.9063,486.0313 Q1812.1719,485.7813 1812.7969,485.7969 L1815.4688,479.1406 L1814.3594,479.1406 Q1813.75,479.1406 1813.4844,478.9063 Q1813.2188,478.6719 1813.2188,478.2813 Q1813.2188,477.9063 1813.4844,477.6719 Q1813.75,477.4375 1814.3594,477.4375 L1818.0313,477.4375 L1821.4219,485.7969 Q1822.0156,485.7969 1822.2031,485.9375 Q1822.5938,486.2031 1822.5938,486.6563 Q1822.5938,487.0313 1822.3281,487.2656 Q1822.0781,487.5 1821.4688,487.5 L1819.1719,487.5 Q1818.5625,487.5 1818.2969,487.2656 Q1818.0313,487.0313 1818.0313,486.6406 Q1818.0313,486.2656 1818.2969,486.0313 Q1818.5625,485.7969 1819.1719,485.7969 L1819.5938,485.7969 L1819.1875,484.7656 Z M1818.4688,483.0625 L1817.1094,479.6875 L1815.7344,483.0625 L1818.4688,483.0625 Z " fill="#000000"/><text fill="#000000" font-family="sans-serif" font-size="14" font-style="italic" lengthAdjust="spacing" textLength="148" x="1831" y="488.7285">Impression_Documents</text><line style="stroke:#181818;stroke-width:0.5;" x1="1803" x2="1981" y1="499" y2="499"/><line style="stroke:#181818;stroke-width:0.5;" x1="1803" x2="1981" y1="507" y2="507"/><ellipse cx="1813" cy="521.3047" fill="#84BE84" rx="3" ry="3" style="stroke:#038048;stroke-width:1.0;"/><text fill="#000000" font-family="sans-serif" font-size="14" lengthAdjust="spacing" textLength="135" x="1822" y="525.5332">ImprimerDocuments()</text></g><polygon fill="none" points="1892.6053,532.6094,1899.9731,552.4768,1885.9755,552.7351" style="stroke:#181818;stroke-width:1.0;"/><line style="stroke:#181818;stroke-width:1.0;" x1="1892.9743" x2="1893" y1="552.606" y2="554"/><line style="stroke:#181818;stroke-width:1.0;" x1="1892" x2="1892" y1="467" y2="446.82"/><!--class bouton--><g id="elem_bouton"><rect codeLine="141" fill="#F1F1F1" height="83.2188" id="bouton" rx="2.5" ry="2.5" style="stroke:#181818;stroke-width:0.5;" width="161" x="1451.5" y="725"/><ellipse cx="1505.75" cy="741" fill="#ADD1B2" rx="11" ry="11" style="stroke:#181818;stroke-width:1.0;"/><path d="M1508.5156,736.875 Q1508.6719,736.6563 1508.8594,736.5469 Q1509.0469,736.4375 1509.2656,736.4375 Q1509.6406,736.4375 1509.875,736.7031 Q1510.1094,736.9531 1510.1094,737.5625 L1510.1094,739.0156 Q1510.1094,739.625 1509.875,739.8906 Q1509.6406,740.1563 1509.2656,740.1563 Q1508.9219,740.1563 1508.7188,739.9531 Q1508.5156,739.7656 1508.4063,739.25 Q1508.3594,738.8906 1508.1719,738.7031 Q1507.8438,738.3281 1507.2344,738.1094 Q1506.625,737.8906 1506,737.8906 Q1505.2344,737.8906 1504.5938,738.2188 Q1503.9688,738.5469 1503.4688,739.2969 Q1502.9844,740.0469 1502.9844,741.0781 L1502.9844,742.1719 Q1502.9844,743.4063 1503.875,744.2344 Q1504.7656,745.0469 1506.3594,745.0469 Q1507.2969,745.0469 1507.9531,744.7969 Q1508.3438,744.6406 1508.7656,744.2031 Q1509.0313,743.9375 1509.1719,743.8594 Q1509.3281,743.7813 1509.5313,743.7813 Q1509.8594,743.7813 1510.1094,744.0469 Q1510.375,744.2969 1510.375,744.6406 Q1510.375,744.9844 1510.0313,745.3906 Q1509.5313,745.9688 1508.7344,746.2969 Q1507.6563,746.75 1506.3594,746.75 Q1504.8438,746.75 1503.6406,746.125 Q1502.6563,745.625 1501.9688,744.5625 Q1501.2813,743.4844 1501.2813,742.2031 L1501.2813,741.0469 Q1501.2813,739.7188 1501.8906,738.5781 Q1502.5156,737.4219 1503.6094,736.8125 Q1504.7031,736.1875 1505.9375,736.1875 Q1506.6719,736.1875 1507.3125,736.3594 Q1507.9688,736.5156 1508.5156,736.875 Z " fill="#000000"/><text fill="#000000" font-family="sans-serif" font-size="14" lengthAdjust="spacing" textLength="44" x="1526.25" y="746.7285">bouton</text><line style="stroke:#181818;stroke-width:0.5;" x1="1452.5" x2="1611.5" y1="757" y2="757"/><text fill="#000000" font-family="sans-serif" font-size="14" lengthAdjust="spacing" textLength="128" x="1457.5" y="775.5332">pas sur de le garder</text><line style="stroke:#181818;stroke-width:0.5;" x1="1452.5" x2="1611.5" y1="782.6094" y2="782.6094"/><ellipse cx="1462.5" cy="796.9141" fill="#84BE84" rx="3" ry="3" style="stroke:#038048;stroke-width:1.0;"/><text fill="#000000" font-family="sans-serif" font-size="14" lengthAdjust="spacing" textLength="135" x="1471.5" y="801.1426">ImprimerDocuments()</text></g><!--class Impression_liste_client--><g id="elem_Impression_liste_client"><rect codeLine="146" fill="#F1F1F1" height="65.6094" id="Impression_liste_client" rx="2.5" ry="2.5" style="stroke:#181818;stroke-width:0.5;" width="227" x="1647.5" y="733.5"/><ellipse cx="1686.35" cy="749.5" fill="#ADD1B2" rx="11" ry="11" style="stroke:#181818;stroke-width:1.0;"/><path d="M1689.1156,745.375 Q1689.2719,745.1563 1689.4594,745.0469 Q1689.6469,744.9375 1689.8656,744.9375 Q1690.2406,744.9375 1690.475,745.2031 Q1690.7094,745.4531 1690.7094,746.0625 L1690.7094,747.5156 Q1690.7094,748.125 1690.475,748.3906 Q1690.2406,748.6563 1689.8656,748.6563 Q1689.5219,748.6563 1689.3188,748.4531 Q1689.1156,748.2656 1689.0063,747.75 Q1688.9594,747.3906 1688.7719,747.2031 Q1688.4438,746.8281 1687.8344,746.6094 Q1687.225,746.3906 1686.6,746.3906 Q1685.8344,746.3906 1685.1938,746.7188 Q1684.5688,747.0469 1684.0688,747.7969 Q1683.5844,748.5469 1683.5844,749.5781 L1683.5844,750.6719 Q1683.5844,751.9063 1684.475,752.7344 Q1685.3656,753.5469 1686.9594,753.5469 Q1687.8969,753.5469 1688.5531,753.2969 Q1688.9438,753.1406 1689.3656,752.7031 Q1689.6313,752.4375 1689.7719,752.3594 Q1689.9281,752.2813 1690.1313,752.2813 Q1690.4594,752.2813 1690.7094,752.5469 Q1690.975,752.7969 1690.975,753.1406 Q1690.975,753.4844 1690.6313,753.8906 Q1690.1313,754.4688 1689.3344,754.7969 Q1688.2563,755.25 1686.9594,755.25 Q1685.4438,755.25 1684.2406,754.625 Q1683.2563,754.125 1682.5688,753.0625 Q1681.8813,751.9844 1681.8813,750.7031 L1681.8813,749.5469 Q1681.8813,748.2188 1682.4906,747.0781 Q1683.1156,745.9219 1684.2094,745.3125 Q1685.3031,744.6875 1686.5375,744.6875 Q1687.2719,744.6875 1687.9125,744.8594 Q1688.5688,745.0156 1689.1156,745.375 Z " fill="#000000"/><text fill="#000000" font-family="sans-serif" font-size="14" lengthAdjust="spacing" textLength="142" x="1705.65" y="755.2285">Impression_liste_client</text><line style="stroke:#181818;stroke-width:0.5;" x1="1648.5" x2="1873.5" y1="765.5" y2="765.5"/><line style="stroke:#181818;stroke-width:0.5;" x1="1648.5" x2="1873.5" y1="773.5" y2="773.5"/><ellipse cx="1658.5" cy="787.8047" fill="#84BE84" rx="3" ry="3" style="stroke:#038048;stroke-width:1.0;"/><text fill="#000000" font-family="sans-serif" font-size="14" lengthAdjust="spacing" textLength="201" x="1667.5" y="792.0332">ImprimerDocuments(liste_client)</text></g><!--class Impression_commande_client--><g id="elem_Impression_commande_client"><rect codeLine="150" fill="#F1F1F1" height="65.6094" id="Impression_commande_client" rx="2.5" ry="2.5" style="stroke:#181818;stroke-width:0.5;" width="230" x="1910" y="733.5"/><ellipse cx="1930.4" cy="749.5" fill="#ADD1B2" rx="11" ry="11" style="stroke:#181818;stroke-width:1.0;"/><path d="M1933.1656,745.375 Q1933.3219,745.1563 1933.5094,745.0469 Q1933.6969,744.9375 1933.9156,744.9375 Q1934.2906,744.9375 1934.525,745.2031 Q1934.7594,745.4531 1934.7594,746.0625 L1934.7594,747.5156 Q1934.7594,748.125 1934.525,748.3906 Q1934.2906,748.6563 1933.9156,748.6563 Q1933.5719,748.6563 1933.3688,748.4531 Q1933.1656,748.2656 1933.0563,747.75 Q1933.0094,747.3906 1932.8219,747.2031 Q1932.4938,746.8281 1931.8844,746.6094 Q1931.275,746.3906 1930.65,746.3906 Q1929.8844,746.3906 1929.2438,746.7188 Q1928.6188,747.0469 1928.1188,747.7969 Q1927.6344,748.5469 1927.6344,749.5781 L1927.6344,750.6719 Q1927.6344,751.9063 1928.525,752.7344 Q1929.4156,753.5469 1931.0094,753.5469 Q1931.9469,753.5469 1932.6031,753.2969 Q1932.9938,753.1406 1933.4156,752.7031 Q1933.6813,752.4375 1933.8219,752.3594 Q1933.9781,752.2813 1934.1813,752.2813 Q1934.5094,752.2813 1934.7594,752.5469 Q1935.025,752.7969 1935.025,753.1406 Q1935.025,753.4844 1934.6813,753.8906 Q1934.1813,754.4688 1933.3844,754.7969 Q1932.3063,755.25 1931.0094,755.25 Q1929.4938,755.25 1928.2906,754.625 Q1927.3063,754.125 1926.6188,753.0625 Q1925.9313,751.9844 1925.9313,750.7031 L1925.9313,749.5469 Q1925.9313,748.2188 1926.5406,747.0781 Q1927.1656,745.9219 1928.2594,745.3125 Q1929.3531,744.6875 1930.5875,744.6875 Q1931.3219,744.6875 1931.9625,744.8594 Q1932.6188,745.0156 1933.1656,745.375 Z " fill="#000000"/><text fill="#000000" font-family="sans-serif" font-size="14" lengthAdjust="spacing" textLength="186" x="1945.6" y="755.2285">Impression_commande_client</text><line style="stroke:#181818;stroke-width:0.5;" x1="1911" x2="2139" y1="765.5" y2="765.5"/><line style="stroke:#181818;stroke-width:0.5;" x1="1911" x2="2139" y1="773.5" y2="773.5"/><ellipse cx="1921" cy="787.8047" fill="#84BE84" rx="3" ry="3" style="stroke:#038048;stroke-width:1.0;"/><text fill="#000000" font-family="sans-serif" font-size="14" lengthAdjust="spacing" textLength="204" x="1930" y="792.0332">ImprimerDocuments(commande)</text></g><!--class Impression_rapport_statistique--><g id="elem_Impression_rapport_statistique"><rect codeLine="154" fill="#F1F1F1" height="65.6094" id="Impression_rapport_statistique" rx="2.5" ry="2.5" style="stroke:#181818;stroke-width:0.5;" width="279" x="2175.5" y="733.5"/><ellipse cx="2214.35" cy="749.5" fill="#ADD1B2" rx="11" ry="11" style="stroke:#181818;stroke-width:1.0;"/><path d="M2217.1156,745.375 Q2217.2719,745.1563 2217.4594,745.0469 Q2217.6469,744.9375 2217.8656,744.9375 Q2218.2406,744.9375 2218.475,745.2031 Q2218.7094,745.4531 2218.7094,746.0625 L2218.7094,747.5156 Q2218.7094,748.125 2218.475,748.3906 Q2218.2406,748.6563 2217.8656,748.6563 Q2217.5219,748.6563 2217.3188,748.4531 Q2217.1156,748.2656 2217.0063,747.75 Q2216.9594,747.3906 2216.7719,747.2031 Q2216.4438,746.8281 2215.8344,746.6094 Q2215.225,746.3906 2214.6,746.3906 Q2213.8344,746.3906 2213.1938,746.7188 Q2212.5688,747.0469 2212.0688,747.7969 Q2211.5844,748.5469 2211.5844,749.5781 L2211.5844,750.6719 Q2211.5844,751.9063 2212.475,752.7344 Q2213.3656,753.5469 2214.9594,753.5469 Q2215.8969,753.5469 2216.5531,753.2969 Q2216.9438,753.1406 2217.3656,752.7031 Q2217.6313,752.4375 2217.7719,752.3594 Q2217.9281,752.2813 2218.1313,752.2813 Q2218.4594,752.2813 2218.7094,752.5469 Q2218.975,752.7969 2218.975,753.1406 Q2218.975,753.4844 2218.6313,753.8906 Q2218.1313,754.4688 2217.3344,754.7969 Q2216.2563,755.25 2214.9594,755.25 Q2213.4438,755.25 2212.2406,754.625 Q2211.2563,754.125 2210.5688,753.0625 Q2209.8813,751.9844 2209.8813,750.7031 L2209.8813,749.5469 Q2209.8813,748.2188 2210.4906,747.0781 Q2211.1156,745.9219 2212.2094,745.3125 Q2213.3031,744.6875 2214.5375,744.6875 Q2215.2719,744.6875 2215.9125,744.8594 Q2216.5688,745.0156 2217.1156,745.375 Z " fill="#000000"/><text fill="#000000" font-family="sans-serif" font-size="14" lengthAdjust="spacing" textLength="194" x="2233.65" y="755.2285">Impression_rapport_statistique</text><line style="stroke:#181818;stroke-width:0.5;" x1="2176.5" x2="2453.5" y1="765.5" y2="765.5"/><line style="stroke:#181818;stroke-width:0.5;" x1="2176.5" x2="2453.5" y1="773.5" y2="773.5"/><ellipse cx="2186.5" cy="787.8047" fill="#84BE84" rx="3" ry="3" style="stroke:#038048;stroke-width:1.0;"/><text fill="#000000" font-family="sans-serif" font-size="14" lengthAdjust="spacing" textLength="253" x="2195.5" y="792.0332">ImprimerDocuments(rapport_statistique)</text></g><!--class Rapport_Statistique--><g id="elem_Rapport_Statistique"><rect codeLine="162" fill="#F1F1F1" height="65.6094" id="Rapport_Statistique" rx="2.5" ry="2.5" style="stroke:#181818;stroke-width:0.5;" width="206" x="1053" y="147.5"/><ellipse cx="1090.05" cy="163.5" fill="#A9DCDF" rx="11" ry="11" style="stroke:#181818;stroke-width:1.0;"/><path d="M1092.2375,165.2656 L1088.0969,165.2656 L1087.675,166.2969 L1088.0969,166.2969 Q1088.7063,166.2969 1088.9719,166.5313 Q1089.2375,166.7656 1089.2375,167.1563 Q1089.2375,167.5313 1088.9719,167.7656 Q1088.7063,168 1088.0969,168 L1085.8,168 Q1085.1906,168 1084.9406,167.7656 Q1084.675,167.5313 1084.675,167.1406 Q1084.675,166.7656 1084.9563,166.5313 Q1085.2219,166.2813 1085.8469,166.2969 L1088.5188,159.6406 L1087.4094,159.6406 Q1086.8,159.6406 1086.5344,159.4063 Q1086.2688,159.1719 1086.2688,158.7813 Q1086.2688,158.4063 1086.5344,158.1719 Q1086.8,157.9375 1087.4094,157.9375 L1091.0813,157.9375 L1094.4719,166.2969 Q1095.0656,166.2969 1095.2531,166.4375 Q1095.6438,166.7031 1095.6438,167.1563 Q1095.6438,167.5313 1095.3781,167.7656 Q1095.1281,168 1094.5188,168 L1092.2219,168 Q1091.6125,168 1091.3469,167.7656 Q1091.0813,167.5313 1091.0813,167.1406 Q1091.0813,166.7656 1091.3469,166.5313 Q1091.6125,166.2969 1092.2219,166.2969 L1092.6438,166.2969 L1092.2375,165.2656 Z M1091.5188,163.5625 L1090.1594,160.1875 L1088.7844,163.5625 L1091.5188,163.5625 Z " fill="#000000"/><text fill="#000000" font-family="sans-serif" font-size="14" font-style="italic" lengthAdjust="spacing" textLength="125" x="1108.95" y="169.2285">Rapport_Statistique</text><line style="stroke:#181818;stroke-width:0.5;" x1="1054" x2="1258" y1="179.5" y2="179.5"/><line style="stroke:#181818;stroke-width:0.5;" x1="1054" x2="1258" y1="187.5" y2="187.5"/><ellipse cx="1064" cy="201.8047" fill="#84BE84" rx="3" ry="3" style="stroke:#038048;stroke-width:1.0;"/><text fill="#000000" font-family="sans-serif" font-size="14" lengthAdjust="spacing" textLength="180" x="1073" y="206.0332">G&#233;n&#233;rerRapportStatistique()</text></g><polygon fill="none" points="1156,213.1094,1163,233.1094,1149,233.1094" style="stroke:#181818;stroke-width:1.0;"/><line style="stroke:#181818;stroke-width:1.0;" x1="1156" x2="1156" y1="233.1094" y2="234.5"/><!--class Rapport_Statistique_Produits--><g id="elem_Rapport_Statistique_Produits"><rect codeLine="166" fill="#F1F1F1" height="48" id="Rapport_Statistique_Produits" rx="2.5" ry="2.5" style="stroke:#181818;stroke-width:0.5;" width="217" x="918.5" y="476"/><ellipse cx="933.5" cy="492" fill="#ADD1B2" rx="11" ry="11" style="stroke:#181818;stroke-width:1.0;"/><path d="M936.2656,487.875 Q936.4219,487.6563 936.6094,487.5469 Q936.7969,487.4375 937.0156,487.4375 Q937.3906,487.4375 937.625,487.7031 Q937.8594,487.9531 937.8594,488.5625 L937.8594,490.0156 Q937.8594,490.625 937.625,490.8906 Q937.3906,491.1563 937.0156,491.1563 Q936.6719,491.1563 936.4688,490.9531 Q936.2656,490.7656 936.1563,490.25 Q936.1094,489.8906 935.9219,489.7031 Q935.5938,489.3281 934.9844,489.1094 Q934.375,488.8906 933.75,488.8906 Q932.9844,488.8906 932.3438,489.2188 Q931.7188,489.5469 931.2188,490.2969 Q930.7344,491.0469 930.7344,492.0781 L930.7344,493.1719 Q930.7344,494.4063 931.625,495.2344 Q932.5156,496.0469 934.1094,496.0469 Q935.0469,496.0469 935.7031,495.7969 Q936.0938,495.6406 936.5156,495.2031 Q936.7813,494.9375 936.9219,494.8594 Q937.0781,494.7813 937.2813,494.7813 Q937.6094,494.7813 937.8594,495.0469 Q938.125,495.2969 938.125,495.6406 Q938.125,495.9844 937.7813,496.3906 Q937.2813,496.9688 936.4844,497.2969 Q935.4063,497.75 934.1094,497.75 Q932.5938,497.75 931.3906,497.125 Q930.4063,496.625 929.7188,495.5625 Q929.0313,494.4844 929.0313,493.2031 L929.0313,492.0469 Q929.0313,490.7188 929.6406,489.5781 Q930.2656,488.4219 931.3594,487.8125 Q932.4531,487.1875 933.6875,487.1875 Q934.4219,487.1875 935.0625,487.3594 Q935.7188,487.5156 936.2656,487.875 Z " fill="#000000"/><text fill="#000000" font-family="sans-serif" font-size="14" lengthAdjust="spacing" textLength="185" x="947.5" y="497.7285">Rapport_Statistique_Produits</text><line style="stroke:#181818;stroke-width:0.5;" x1="919.5" x2="1134.5" y1="508" y2="508"/><line style="stroke:#181818;stroke-width:0.5;" x1="919.5" x2="1134.5" y1="516" y2="516"/></g><!--class Rapport_Statistique_Enseigne--><g id="elem_Rapport_Statistique_Enseigne"><rect codeLine="170" fill="#F1F1F1" height="48" id="Rapport_Statistique_Enseigne" rx="2.5" ry="2.5" style="stroke:#181818;stroke-width:0.5;" width="224" x="1171" y="476"/><ellipse cx="1186" cy="492" fill="#ADD1B2" rx="11" ry="11" style="stroke:#181818;stroke-width:1.0;"/><path d="M1188.7656,487.875 Q1188.9219,487.6563 1189.1094,487.5469 Q1189.2969,487.4375 1189.5156,487.4375 Q1189.8906,487.4375 1190.125,487.7031 Q1190.3594,487.9531 1190.3594,488.5625 L1190.3594,490.0156 Q1190.3594,490.625 1190.125,490.8906 Q1189.8906,491.1563 1189.5156,491.1563 Q1189.1719,491.1563 1188.9688,490.9531 Q1188.7656,490.7656 1188.6563,490.25 Q1188.6094,489.8906 1188.4219,489.7031 Q1188.0938,489.3281 1187.4844,489.1094 Q1186.875,488.8906 1186.25,488.8906 Q1185.4844,488.8906 1184.8438,489.2188 Q1184.2188,489.5469 1183.7188,490.2969 Q1183.2344,491.0469 1183.2344,492.0781 L1183.2344,493.1719 Q1183.2344,494.4063 1184.125,495.2344 Q1185.0156,496.0469 1186.6094,496.0469 Q1187.5469,496.0469 1188.2031,495.7969 Q1188.5938,495.6406 1189.0156,495.2031 Q1189.2813,494.9375 1189.4219,494.8594 Q1189.5781,494.7813 1189.7813,494.7813 Q1190.1094,494.7813 1190.3594,495.0469 Q1190.625,495.2969 1190.625,495.6406 Q1190.625,495.9844 1190.2813,496.3906 Q1189.7813,496.9688 1188.9844,497.2969 Q1187.9063,497.75 1186.6094,497.75 Q1185.0938,497.75 1183.8906,497.125 Q1182.9063,496.625 1182.2188,495.5625 Q1181.5313,494.4844 1181.5313,493.2031 L1181.5313,492.0469 Q1181.5313,490.7188 1182.1406,489.5781 Q1182.7656,488.4219 1183.8594,487.8125 Q1184.9531,487.1875 1186.1875,487.1875 Q1186.9219,487.1875 1187.5625,487.3594 Q1188.2188,487.5156 1188.7656,487.875 Z " fill="#000000"/><text fill="#000000" font-family="sans-serif" font-size="14" lengthAdjust="spacing" textLength="192" x="1200" y="497.7285">Rapport_Statistique_Enseigne</text><line style="stroke:#181818;stroke-width:0.5;" x1="1172" x2="1394" y1="508" y2="508"/><line style="stroke:#181818;stroke-width:0.5;" x1="1172" x2="1394" y1="516" y2="516"/></g><!--link client to commande--><g id="link_client_commande"><path codeLine="69" d="M392.35,319.37 C399.37,345.31 406.6,372.01 413.27,396.63 " fill="none" id="client-commande" style="stroke:#181818;stroke-width:1.0;"/><text fill="#000000" font-family="sans-serif" font-size="13" lengthAdjust="spacing" textLength="37" x="404" y="363.4951">Passe</text><text fill="#000000" font-family="sans-serif" font-size="13" lengthAdjust="spacing" textLength="20" x="373.7602" y="340.4492">0..*</text><text fill="#000000" font-family="sans-serif" font-size="13" lengthAdjust="spacing" textLength="7" x="404.0741" y="386.2897">1</text></g><!--link commande to objet--><g id="link_commande_objet"><path codeLine="70" d="M383.01,603.26 C368.5,628.85 353.09,656.01 339.12,680.65 " fill="none" id="commande-objet" style="stroke:#181818;stroke-width:1.0;"/><text fill="#000000" font-family="sans-serif" font-size="13" lengthAdjust="spacing" textLength="161" x="367" y="647.4951">peut &#234;tre un agregat &#224; revoir</text></g><!--link Emballage to objet--><g id="link_Emballage_objet"><path codeLine="71" d="M77.81,248.77 C50.88,335.58 18.11,489 75,603 C96.11,645.3 134.06,679.48 172.33,705.37 " fill="none" id="Emballage-objet" style="stroke:#181818;stroke-width:1.0;"/><text fill="#000000" font-family="sans-serif" font-size="13" lengthAdjust="spacing" textLength="149" x="76" y="505.4951">peut en contenir plusieurs</text></g><!--link Emballage to commande--><g id="link_Emballage_commande"><path codeLine="72" d="M146.97,248.69 C163.02,271.54 181.68,296.87 200,319 C218.85,341.76 223.42,347.94 246,367 C257.95,377.08 270.68,387.1 283.7,396.85 " fill="none" id="Emballage-commande" style="stroke:#181818;stroke-width:1.0;"/><text fill="#000000" font-family="sans-serif" font-size="13" lengthAdjust="spacing" textLength="144" x="247" y="363.4951">va contenir la commande</text></g><!--reverse link Creation_de_commande to Base_Creation_de_commande--><g id="link_Creation_de_commande_Base_Creation_de_commande"><path codeLine="175" d="M3510,240.03 C3510,292.28 3510,365.92 3510,429.41 " fill="none" id="Creation_de_commande-backto-Base_Creation_de_commande" style="stroke:#181818;stroke-width:1.0;stroke-dasharray:7.0,7.0;"/><polygon fill="none" points="3510,222.03,3504,240.03,3516,240.03,3510,222.03" style="stroke:#181818;stroke-width:1.0;"/></g><!--reverse link Base_Creation_de_commande to Handler_Produits--><g id="link_Base_Creation_de_commande_Handler_Produits"><path codeLine="176" d="M3510,572 C3510,572 3360.85,622.59 3250,681 C3230.37,691.34 3209.87,703.73 3191.08,715.79 " fill="none" id="Base_Creation_de_commande-backto-Handler_Produits" style="stroke:#181818;stroke-width:1.0;"/></g><!--reverse link Base_Creation_de_commande to Handler_Emballage--><g id="link_Base_Creation_de_commande_Handler_Emballage"><path codeLine="177" d="M3510,572 C3510,572 3453.17,658.59 3415.54,715.92 " fill="none" id="Base_Creation_de_commande-backto-Handler_Emballage" style="stroke:#181818;stroke-width:1.0;"/></g><!--reverse link Base_Creation_de_commande to Handler_conditionnement--><g id="link_Base_Creation_de_commande_Handler_conditionnement"><path codeLine="178" d="M3510,572 C3510,572 3566.83,658.59 3604.46,715.92 " fill="none" id="Base_Creation_de_commande-backto-Handler_conditionnement" style="stroke:#181818;stroke-width:1.0;"/></g><!--reverse link Base_Creation_de_commande to Handler_suivie_commande--><g id="link_Base_Creation_de_commande_Handler_suivie_commande"><path codeLine="179" d="M3510,572 C3510,572 3653.38,621.41 3758,681 C3780.55,693.85 3804.06,710.03 3824.1,724.79 " fill="none" id="Base_Creation_de_commande-backto-Handler_suivie_commande" style="stroke:#181818;stroke-width:1.0;"/></g><!--reverse link Mail to Mail_personaliser--><g id="link_Mail_Mail_personaliser"><path codeLine="182" d="M2715,252.5 C2715,252.5 2642.02,399.96 2608.95,466.77 " fill="none" id="Mail-backto-Mail_personaliser" style="stroke:#181818;stroke-width:1.0;"/></g><!--reverse link Mail to Newsletters--><g id="link_Mail_Newsletters"><path codeLine="183" d="M2715,252.5 C2715,252.5 2778.35,388.28 2811.01,458.3 " fill="none" id="Mail-backto-Newsletters" style="stroke:#181818;stroke-width:1.0;"/></g><!--reverse link Impression_documents to Impression_Documents--><g id="link_Impression_documents_Impression_Documents"><path codeLine="186" d="M1892,231.69 C1892,286.55 1892,380.64 1892,446.82 " fill="none" id="Impression_documents-backto-Impression_Documents" style="stroke:#181818;stroke-width:1.0;stroke-dasharray:7.0,7.0;"/><polygon fill="none" points="1892,213.69,1886,231.69,1898,231.69,1892,213.69" style="stroke:#181818;stroke-width:1.0;"/></g><!--reverse link Impression_Documents to Impression_commande_client--><g id="link_Impression_Documents_Impression_commande_client"><path codeLine="187" d="M1893,554 C1893,554 1968.03,674.21 2004.95,733.38 " fill="none" id="Impression_Documents-backto-Impression_commande_client" style="stroke:#181818;stroke-width:1.0;"/></g><!--reverse link Impression_Documents to Impression_liste_client--><g id="link_Impression_Documents_Impression_liste_client"><path codeLine="188" d="M1893,554 C1893,554 1817.97,674.21 1781.05,733.38 " fill="none" id="Impression_Documents-backto-Impression_liste_client" style="stroke:#181818;stroke-width:1.0;"/></g><!--reverse link Impression_Documents to Impression_rapport_statistique--><g id="link_Impression_Documents_Impression_rapport_statistique"><path codeLine="189" d="M1893,554 C1893,554 2041.58,621.81 2158,681 C2190.97,697.76 2227.37,717.29 2256.82,733.35 " fill="none" id="Impression_Documents-backto-Impression_rapport_statistique" style="stroke:#181818;stroke-width:1.0;"/></g><!--reverse link Impression_Documents to bouton--><g id="link_Impression_Documents_bouton"><path codeLine="190" d="M1893,554 C1893,554 1738.53,609.79 1630,681 C1610.65,693.69 1591.01,709.85 1574.44,724.63 " fill="none" id="Impression_Documents-backto-bouton" style="stroke:#181818;stroke-width:1.0;"/></g><!--reverse link Rapport_Statistique to Rapport_Statistique_Enseigne--><g id="link_Rapport_Statistique_Rapport_Statistique_Enseigne"><path codeLine="192" d="M1156,234.5 C1156,234.5 1241.05,411.64 1271.95,475.99 " fill="none" id="Rapport_Statistique-backto-Rapport_Statistique_Enseigne" style="stroke:#181818;stroke-width:1.0;"/></g><!--reverse link Rapport_Statistique to Rapport_Statistique_Produits--><g id="link_Rapport_Statistique_Rapport_Statistique_Produits"><path codeLine="193" d="M1156,234.5 C1156,234.5 1069.61,411.64 1038.22,475.99 " fill="none" id="Rapport_Statistique-backto-Rapport_Statistique_Produits" style="stroke:#181818;stroke-width:1.0;"/></g><!--SRC=[fLVBRjms5DthAmXlwZIrqNPPf0NI6TSnu1YJZfjDKGWSwNhCc29Lad8TEFwNBZlz3VrOBwaNHJrc1kLYOFE-3kzR-e69d2gQaQsIHNubxa4nGqK2vFieocdoGBT0tiiKE7cE29w4Kwtnbu4mzPKzLsbSt_r0c33j_OtCy4ORnSIslLofSYV629SW50oltwOAj8Pu9RMXV4XV8BwEw9l_o3WVKNXRxdYvo- -bcB6MKJPgAykeG7iWuaGMIYCBPzhyRZrGq_vekTyXHIhsPm4jSOxz1lxI78m1ftOZ9GSgMkhp7GEUlf2rvAd5dPQxX6MKdxvoB2-H7w1QTn2YvhRlfQdWNIDGY5aQoyqdCDv3tVyTx0y55OQPSXTthBqaAB9ofsICNjC5UsIX_TlFEQ0eP1lAkKquHoQVW22x9ZdL-8SYY1k3kQKg1TNANXXgsYYH7tyYEGO5nLDqUhaZcf7aAz26W20kNDyWWqQeH1Q4AiKUozt0mIl5dZp_ajh1FHR9KXtm3ADGEQCNWZ7_p2cTBQGbw4Int30fHeXCvrAmZIk0C9UmfCj_lDBeEPc6JjxZcDwRBzeezjuT17V-NLr2PKomhCW28OzEdqRe-npQ1omqiAtmyJO9sv86c7rI07wYvoonuL1b8ElNMG_ARuPXYL4368YUzmgFiCT_FOMtBDie_sNE8_kyDXLbL5ttYPDlpy-_FY5dP-JaknFYjPKLMeMelK269k5pA0mf_pK8fn24RXLiiNBBluc2HybKrELDAEHALnWGJ96S5vgX5tIVtqFmI3jkJbjAr8spQxbr7Ja3my0wsZsleLvYjy1wiirgf8cYlq3TKPoF2mLqXl6rPG3LZ0klabyJ3UO6dentLmVD7hh1ODB4a9yf3g4zLkmv8mALuSlV8P5xLTitLbDV1UGfb2-aWrJbKgqWNYcP5ipevr3JlMHF3V4qjFCH5uixbhZ7ODjQ6vayw4dkIT0lKwZ6sew7goKV16oQ-tXWc8mfiyf5LVe3U9Gd1KVBloZAz19MKesvZtAMDXXdEOz7MCtagVIgROEw1coBeEGIraxW6CkU_QRERCuLedPyKuGTkFUuVSKvBa9Ie7aDAe3behfmtUZj0kiTAmRKwSnh_TsghygjEPMgq9sua89o21TIvTg2qgUOBVVOE6A3ZuNv6hO2muXRLHFhfHiWs65OmfnPgo30T24UvMTG0MNKnrTPRdVPmC5T3-leSIgJmkPdMDQMXM7ObmrzJzVoL2x_dyegR1jP60VVLp6x4LPEFig81vgxdNVmVJEbr6S_p41JPeVRQ2GEqwzedcDZYF5ho20uE-aEi34YDJ0N9DUwPs2O2R_MAjSpG2xnGn0tBL0riySx5wyHrTvOEawkMUIUcmgoltRL6HszRxwSdqzFvcXwPh_vWcjAE48FvM_dqQ42mT0vL2oO1BWpkGRcU0ODsQDvlHLbnhfAvRYnvX2DNLPgfwlcC26_E0-J62c36S6gDqNHMAOxXhbyEqwgpHWy_m40]--></g></svg>